<?xml version="1.0" encoding="UTF-8" standalone="no"?>
<!DOCTYPE svg PUBLIC "-//W3C//DTD SVG 1.1//EN" "http://www.w3.org/Graphics/SVG/1.1/DTD/svg11.dtd">
<svg xmlns="http://www.w3.org/2000/svg" width="750" height="250" viewBox="2300 -250 150 1600" fill="none">
	<path d="M172.714 689.54C225.827 734.653 285.262 762.072 357.184 762.072C406.187 762.072 437.327 740.073 437.327 713.77C437.327 688.583 420.729 682.207 341.535 668.657C175.876 638.209 99.8433 581.459 99.8433 472.263C99.8433 352.545 216.5 295.794 336.319 295.794C440.488 295.794 530.115 335.647 581.172 387.137L482.219 494.261C441.595 457.437 378.05 439.583 329.048 439.583C287.317 439.583 255.07 452.177 255.07 474.175C255.07 486.769 261.393 509.884 363.349 526.781C516.521 555.156 594.608 602.501 594.608 711.698C594.608 767.332 571.688 814.678 526.954 851.501C482.219 888.325 423.891 906.179 354.023 906.179C221.717 906.179 127.98 855.806 76.9229 793.795L172.714 689.54Z" fill="black"/>
	<path d="M1504.31 888.006C1404.25 834.444 1330.28 756.652 1330.28 631.674V87.4441H1493.88V607.443C1493.88 670.41 1525.18 720.944 1588.72 755.536L1622.08 773.39L1546.04 910.962L1504.31 888.006Z" fill="black"/>
	<path fill-rule="evenodd" clip-rule="evenodd" d="M2112.73 893.267V811.33C2076.22 866.964 2002.24 905.861 1917.99 905.861C1755.49 905.861 1634.56 777.694 1634.56 602.183C1634.56 429.859 1755.49 296.432 1920.99 296.432C2000.18 296.432 2065.78 325.923 2107.51 379.485V313.33H2267.96V893.267H2112.73ZM2059.62 492.03C2031.48 463.654 1996.07 448.989 1953.39 448.989C1910.72 448.989 1874.2 463.654 1846.06 492.03C1817.93 520.405 1803.38 557.229 1803.38 601.226C1803.38 645.383 1817.93 682.048 1846.06 711.539C1874.2 741.03 1910.72 755.696 1953.39 755.696C1996.07 755.696 2031.48 741.03 2059.62 711.539C2087.76 682.048 2102.3 645.383 2102.3 601.226C2102.3 557.069 2087.76 520.405 2059.62 492.03Z" fill="black"/>
	<path d="M2531.62 893.267H2367.07V313.33H2520.24V391.122C2546.32 337.56 2605.6 309.185 2652.55 300.736L2699.49 292.288L2730.79 432.091L2678.79 442.612C2600.7 459.35 2531.94 515.144 2531.94 627.529V893.267H2531.62Z" fill="black"/>
	<path fill-rule="evenodd" clip-rule="evenodd" d="M3140.99 905.86C3053.42 905.86 2982.6 870.152 2946.24 814.518V893.267H2791.02V87.4441H2955.57V377.413C2997.3 327.039 3063.85 296.591 3142.1 296.591C3301.43 296.591 3424.41 426.83 3424.41 601.226C3424.41 774.665 3306.65 905.86 3140.99 905.86ZM3211.96 492.029C3183.83 463.654 3148.42 448.988 3105.74 448.988C3063.06 448.988 3027.65 463.654 2999.51 492.029C2971.38 520.405 2956.84 557.229 2956.84 601.226C2956.84 645.383 2971.38 682.047 2999.51 711.538C3027.65 741.029 3063.06 755.695 3105.74 755.695C3148.42 755.695 3183.83 741.029 3211.96 711.538C3241.21 682.047 3255.75 645.383 3255.75 601.226C3255.75 557.069 3241.05 520.405 3211.96 492.029Z" fill="black"/>
	<path d="M3676.7 172.57C3676.7 222.944 3642.24 270.289 3579.8 270.289C3516.25 270.289 3481.79 222.944 3481.79 172.57C3481.79 125.225 3516.09 76.9231 3579.8 76.9231C3642.24 77.0825 3676.7 125.384 3676.7 172.57ZM3497.44 893.267V313.33H3661.99V893.267H3497.44Z" fill="black"/>
	<path d="M3715.26 459.35V313.33H3769.48V200.945L3934.04 144.194V313.33H4036.15V459.35H3934.04V634.862C3934.04 692.728 3960.12 719.987 4010.07 748.362L4054.8 773.549L3978.77 910.164L3929.77 883.862C3858.95 847.038 3769.32 790.447 3769.32 669.613V459.509H3715.26V459.35Z" fill="black"/>
	<path fill-rule="evenodd" clip-rule="evenodd" d="M4537.24 893.267V811.33C4500.72 866.964 4426.75 905.861 4342.34 905.861C4179.84 905.861 4058.91 777.694 4058.91 602.183C4058.91 429.859 4179.84 296.432 4345.34 296.432C4424.53 296.432 4490.13 325.923 4531.86 379.485V313.33H4692.31V893.267H4537.24ZM4484.13 492.03C4455.99 463.654 4420.58 448.989 4377.9 448.989C4335.22 448.989 4298.71 463.654 4270.57 492.03C4242.43 520.405 4227.89 557.229 4227.89 601.226C4227.89 645.383 4242.43 682.048 4270.57 711.539C4298.71 741.03 4335.22 755.696 4377.9 755.696C4420.58 755.696 4455.99 741.03 4484.13 711.539C4512.26 682.048 4526.81 645.383 4526.81 601.226C4526.81 557.069 4512.26 520.405 4484.13 492.03Z" fill="black"/>
	<path d="M967.659 923.077C792.199 923.077 650.408 780.086 650.408 603.139C650.408 426.193 792.199 283.201 967.659 283.201C1143.12 283.201 1284.91 426.193 1284.91 603.139C1284.91 780.086 1143.12 923.077 967.659 923.077Z" fill="#FFC64B"/>
	<path d="M1074.36 807.982C1065.35 840.024 1033.73 857.718 1001.49 848.791C968.29 839.545 951.377 809.736 960.545 776.1C969.239 744.377 1003.07 724.451 1033.26 733.378C1063.13 742.145 1082.58 777.534 1074.36 807.982Z" fill="white"/>
	<path d="M998.956 654.948C997.059 655.904 995.004 656.861 992.949 657.658C988.681 659.252 984.572 661.005 980.462 662.918C935.727 680.294 904.587 710.263 889.412 758.087C881.351 783.592 862.066 798.737 835.668 801.606C829.819 802.244 823.97 801.765 818.28 800.49C817.173 800.171 815.909 799.852 814.802 799.534C793.147 792.679 778.288 774.347 774.81 752.667C774.494 750.913 774.336 749.16 774.178 747.406C773.704 740.87 774.178 734.334 775.759 727.639C781.607 703.09 798.837 690.656 821.125 681.888C876.292 660.049 909.645 620.196 913.913 559.142C916.759 518.333 897.948 485.175 873.921 454.409C868.389 447.235 863.963 439.902 861.117 431.772C857.956 421.729 857.64 410.889 860.959 399.093V398.934C861.117 398.774 861.117 398.615 861.117 398.455C869.653 366.414 902.374 347.603 934.147 356.211C964.022 364.341 982.359 393.992 977.3 424.121C976.984 425.874 976.826 427.787 976.352 429.7C968.132 468.756 974.297 503.188 992.475 534.433C998.798 546.07 1006.39 557.388 1015.4 568.388C1039.11 597.56 1029.94 636.775 998.956 654.948Z" fill="white"/>
</svg>