<?xml version="1.0" encoding="UTF-8" standalone="no"?>
<!DOCTYPE svg PUBLIC "-//W3C//DTD SVG 1.1//EN" "http://www.w3.org/Graphics/SVG/1.1/DTD/svg11.dtd">
<svg  width="440" height="440" viewBox="0 -250 900 1500" fill="none" xmlns="http://www.w3.org/2000/svg">
	<path d="M601.224 699.394C577.661 693.479 552.72 697.013 531.729 709.243C510.738 721.472 495.363 741.427 488.889 764.842C485.16 776.317 483.861 788.443 485.074 800.448C486.288 812.453 489.987 824.074 495.936 834.572C501.885 845.069 509.955 854.213 519.631 861.422C529.307 868.631 540.377 873.747 552.138 876.444C563.634 879.89 575.705 880.993 587.634 879.686C599.564 878.379 611.11 874.689 621.587 868.836C632.064 862.982 641.258 855.084 648.625 845.61C655.992 836.136 661.381 825.279 664.473 813.683C669.897 790.185 666.438 765.512 654.761 744.412C643.084 723.312 624.014 707.277 601.224 699.394V699.394Z" fill="white"/>
	<path d="M573.628 446.641C560.281 430.459 548.505 413.041 538.462 394.625C509.804 346.431 501.044 288.969 514.042 234.426L515.507 225.634C519.026 202.512 513.613 178.917 500.367 159.641C487.121 140.365 467.036 126.853 444.189 121.849C421.342 116.844 397.447 120.723 377.356 132.696C357.265 144.67 342.485 163.841 336.015 186.317V186.317C330.865 202.607 330.865 220.089 336.015 236.379C340.586 248.98 347.276 260.708 355.796 271.057C392.915 318.188 421.732 368.739 417.336 431.5C410.987 525.031 359.459 586.083 274.231 619.539C257.444 624.054 242.125 632.871 229.791 645.121C217.456 657.37 208.531 672.627 203.9 689.382C201.593 699.3 200.852 709.517 201.702 719.664V727.722C204.267 744.266 211.414 759.76 222.334 772.45C233.254 785.139 247.51 794.517 263.486 799.519L268.859 800.984C277.741 803.025 286.897 803.602 295.966 802.694C314.943 801.433 333.07 794.357 347.883 782.429C362.696 770.5 373.474 754.297 378.752 736.025C388.883 702.19 406.925 671.253 431.385 645.774C455.845 620.295 486.021 601.005 519.414 589.502L538.707 581.199C541.985 580.067 545.17 578.678 548.231 577.047C559.376 570.977 569.044 562.521 576.544 552.283C584.043 542.045 589.19 530.278 591.616 517.82C594.042 505.363 593.688 492.524 590.578 480.22C587.469 467.916 581.681 456.45 573.628 446.641V446.641Z" fill="white"/>
</svg>
